<?xml version="1.0" standalone="no"?>
<!DOCTYPE svg PUBLIC "-//W3C//DTD SVG 20010904//EN"
 "http://www.w3.org/TR/2001/REC-SVG-20010904/DTD/svg10.dtd">
<svg version="1.0" xmlns="http://www.w3.org/2000/svg"
 width="251.000000pt" height="251.000000pt" viewBox="0 0 251.000000 251.000000"
 preserveAspectRatio="xMidYMid meet">
<metadata>
Created by potrace 1.15, written by Peter Selinger 2001-2017
</metadata>
<g transform="translate(0.000000,251.000000) scale(0.100000,-0.100000)"
fill="#000000" stroke="none">
<path d="M1197 2239 c-57 -13 -162 -75 -189 -112 -43 -57 -51 -91 -46 -187 3
-49 2 -88 -2 -85 -11 7 -30 -37 -33 -75 -1 -20 -10 -42 -21 -51 -19 -16 -19
-18 -3 -43 10 -14 24 -26 33 -26 8 0 12 -4 9 -10 -3 -5 0 -20 7 -32 7 -13 13
-25 13 -28 0 -3 16 -26 35 -52 38 -54 60 -61 60 -21 0 26 4 23 63 -37 90 -92
123 -115 164 -111 32 2 44 -11 23 -24 -6 -4 -9 -19 -8 -33 3 -24 -1 -27 -28
-30 -22 -2 -33 2 -38 14 -4 10 -2 21 5 24 8 6 8 9 0 14 -6 4 -11 2 -11 -3 0
-6 -7 -11 -16 -11 -10 0 -12 -5 -7 -12 28 -46 3 -67 -57 -49 -63 19 -144 103
-122 126 27 28 -341 -150 -386 -187 -58 -48 -135 -187 -181 -324 -16 -49 -33
-97 -36 -106 -6 -15 -2 -18 23 -18 38 0 82 -16 82 -30 0 -18 -68 -119 -106
-158 -19 -19 -31 -39 -27 -43 20 -18 87 -30 131 -24 44 6 50 10 91 71 24 35
48 64 52 64 4 0 13 17 19 38 7 20 16 41 20 45 8 8 33 -64 46 -133 4 -16 12
-30 20 -30 31 0 108 138 98 177 -7 26 12 63 31 63 10 0 14 -10 13 -32 -1 -18
-1 -51 0 -73 l3 -40 16 29 c10 20 13 42 9 73 l-6 43 34 0 c28 0 36 -5 46 -30
7 -17 19 -34 27 -39 11 -6 2 -11 -31 -20 -43 -11 -74 -40 -62 -60 9 -14 -30
-42 -48 -35 -21 8 -22 -19 -1 -36 8 -7 12 -17 9 -22 -3 -5 4 -20 16 -33 20
-21 29 -23 76 -19 34 3 54 1 54 -5 0 -6 -8 -12 -17 -12 -90 -6 -109 -15 -98
-47 5 -19 12 -20 58 -16 29 3 76 14 105 24 33 12 52 14 49 7 -2 -6 -18 -15
-35 -19 -18 -5 -32 -12 -32 -16 0 -4 -20 -6 -45 -4 -26 3 -52 -1 -60 -8 -11
-9 -18 -10 -29 -1 -18 16 -46 3 -46 -21 0 -38 20 -60 47 -53 16 4 22 2 18 -5
-3 -5 -23 -10 -44 -10 -44 0 -55 -8 -40 -27 9 -9 8 -17 -1 -28 -6 -8 -9 -23
-5 -35 9 -27 -8 -26 -63 6 -44 26 -46 26 -59 8 -9 -12 -12 -30 -8 -49 7 -36 8
-55 3 -75 -4 -18 159 -74 279 -95 194 -34 459 -13 634 50 41 15 82 29 92 32
20 6 20 8 -14 98 l-23 61 24 31 c21 29 23 44 25 160 2 123 8 163 25 163 10 0
60 -152 60 -182 0 -32 61 -238 70 -238 10 0 112 76 163 121 l39 34 -21 58
c-12 31 -30 81 -40 110 -11 28 -26 90 -35 137 l-15 85 25 20 c13 12 24 25 24
29 0 5 6 14 14 20 18 14 -4 80 -94 284 -95 216 -89 210 -310 287 -265 91 -250
84 -250 121 0 22 7 36 24 47 14 9 24 26 24 39 0 51 10 83 31 96 11 8 21 25 21
38 0 40 18 71 47 81 16 6 29 19 31 29 1 11 3 28 4 39 2 14 -3 20 -19 21 -12 1
-29 8 -37 17 -9 8 -20 17 -26 19 -6 2 -20 46 -32 98 -11 52 -27 107 -34 123
-34 64 -177 116 -267 96z m513 -1488 c0 -33 -7 -86 -15 -118 -8 -33 -18 -93
-23 -134 l-7 -74 -42 -3 c-40 -3 -43 -1 -40 20 2 23 1 23 -111 22 -100 -1
-113 1 -108 15 18 58 18 61 2 61 -9 0 -26 -15 -37 -34 -16 -27 -29 -36 -60
-41 -46 -8 -53 -4 -45 22 9 29 141 128 199 149 14 5 17 13 11 38 -4 17 -13 36
-21 41 -12 9 -7 16 26 38 47 31 95 52 86 38 -3 -6 -1 -29 4 -53 12 -53 7 -60
-84 -105 -92 -45 -114 -61 -97 -72 13 -8 214 -5 238 4 7 2 15 35 19 74 6 57
11 71 26 76 12 4 24 23 31 51 9 31 17 44 30 44 15 0 18 -9 18 -59z"/>
<path d="M111 1657 c-14 -16 -19 -27 -12 -32 14 -8 110 -16 220 -18 81 -2 84
-1 103 26 11 16 18 30 15 33 -4 5 -141 6 -227 2 -14 -1 -36 2 -50 6 -20 5 -31
2 -49 -17z"/>
</g>
</svg>
